<svg xmlns="http://www.w3.org/2000/svg" width="221.311" height="45" viewBox="0 0 221.311 45">
  <g id="LOGO_LuceClinic" data-name="LOGO LuceClinic" transform="translate(-192.344 -32)">
    <path id="SYGNET" d="M205.507,75.523l1.755-4.936-2.733-.972,1.357-3.812,6.877,2.446L209.653,77Zm16.956-5.646-2.452,1.545L217.855,68l6.179-3.889,4.945,7.858-3.725,2.344Zm-30.118-9.139,4.97-1.655-.915-2.75,3.837-1.28,2.306,6.929-8.809,2.933Zm34.633-.784.767-7.259,9.232.975-.46,4.377L231.3,57.5,231,60.382Zm-33.6-14.962,2.4-3.689,4.391,2.858,1.581-2.429,3.39,2.2-3.982,6.121Zm27.707-2.264,6.472-6.656,3.156,3.067L227.059,42.9l2.079,2.021-2.821,2.9ZM207.9,32.581,212.265,32l.691,5.195,2.875-.382.532,4.011-7.235.96Z" fill="#edd8c4"/>
    <path id="LOGOTYP" d="M333.111,65.986a12.4,12.4,0,0,1-4.291-2.7,12.254,12.254,0,0,1-2.812-4.166,14.753,14.753,0,0,1,0-10.641,12.245,12.245,0,0,1,2.813-4.166,12.415,12.415,0,0,1,4.291-2.706,14.975,14.975,0,0,1,5.355-.937,13.208,13.208,0,0,1,4.6.685,12.542,12.542,0,0,1,3.371,1.912V49.07a11.1,11.1,0,0,0-1.965-1.732,9.9,9.9,0,0,0-2.543-1.263,10.165,10.165,0,0,0-3.209-.468,8.308,8.308,0,0,0-4,.991,7.818,7.818,0,0,0-2.974,2.832,8.913,8.913,0,0,0,0,8.711,7.771,7.771,0,0,0,2.974,2.849,8.3,8.3,0,0,0,4,.992,10.112,10.112,0,0,0,3.209-.47,9.81,9.81,0,0,0,2.543-1.262,11.024,11.024,0,0,0,1.965-1.731v5.807a12.494,12.494,0,0,1-3.371,1.912,13.207,13.207,0,0,1-4.6.686A14.936,14.936,0,0,1,333.111,65.986Zm70.322-.288a8.2,8.2,0,0,1-3.318-3.048,9.12,9.12,0,0,1,0-9.071,8.245,8.245,0,0,1,3.318-3.03,10.227,10.227,0,0,1,4.741-1.082,10.439,10.439,0,0,1,3.228.451,6.352,6.352,0,0,1,2.254,1.209v4.8a4.11,4.11,0,0,0-1.28-1.389,6.859,6.859,0,0,0-1.858-.92,6.551,6.551,0,0,0-2.019-.325,4.819,4.819,0,0,0-4.184,2.345,4.743,4.743,0,0,0-.649,2.489,4.813,4.813,0,0,0,.649,2.524,4.639,4.639,0,0,0,1.75,1.7,4.913,4.913,0,0,0,2.435.613,6.432,6.432,0,0,0,2.091-.343,6.692,6.692,0,0,0,1.822-.937,4.24,4.24,0,0,0,1.244-1.39v4.8a6.032,6.032,0,0,1-2.254,1.244,10.439,10.439,0,0,1-3.228.451A10.239,10.239,0,0,1,403.432,65.7Zm-94.321,0a7.675,7.675,0,0,1-3.119-3.012,10.089,10.089,0,0,1,0-9.161,7.56,7.56,0,0,1,3.119-2.994,11.332,11.332,0,0,1,9.43-.072,6.751,6.751,0,0,1,2.939,2.886,9.575,9.575,0,0,1,1.01,4.562q0,.325-.019.686a5.4,5.4,0,0,1-.053.577H309.646a6.161,6.161,0,0,0,.421,1.659,3.731,3.731,0,0,0,1.46,1.768,4.3,4.3,0,0,0,2.344.613,5.5,5.5,0,0,0,2.651-.595,4.793,4.793,0,0,0,1.822-1.786l4.075,1.263a8.673,8.673,0,0,1-3.444,3.517,10.566,10.566,0,0,1-5.139,1.172A9.864,9.864,0,0,1,309.111,65.7Zm8.352-9.415a4.2,4.2,0,0,0-.436-1.659,3.432,3.432,0,0,0-1.28-1.371,3.674,3.674,0,0,0-1.948-.5,4.125,4.125,0,0,0-2.29.6,3.73,3.73,0,0,0-1.406,1.766,6.228,6.228,0,0,0-.348,1.173ZM291.676,65.7a8.192,8.192,0,0,1-3.317-3.048,9.114,9.114,0,0,1,0-9.071,8.237,8.237,0,0,1,3.317-3.03,10.231,10.231,0,0,1,4.742-1.082,10.438,10.438,0,0,1,3.227.451,6.356,6.356,0,0,1,2.254,1.209v4.8a4.113,4.113,0,0,0-1.281-1.389,6.865,6.865,0,0,0-1.857-.92,6.557,6.557,0,0,0-2.02-.325,4.819,4.819,0,0,0-4.184,2.345,4.743,4.743,0,0,0-.649,2.489,4.813,4.813,0,0,0,.649,2.524,4.64,4.64,0,0,0,1.75,1.7,4.913,4.913,0,0,0,2.435.613,6.442,6.442,0,0,0,2.092-.343,6.7,6.7,0,0,0,1.821-.937,4.243,4.243,0,0,0,1.245-1.39v4.8a6.036,6.036,0,0,1-2.254,1.244,10.438,10.438,0,0,1-3.227.451A10.243,10.243,0,0,1,291.676,65.7Zm-22-.613a6.892,6.892,0,0,1-1.461-4.653V49.827h4.832v10.1a4.177,4.177,0,0,0,.649,2.507,2.42,2.42,0,0,0,2.092.884,3.523,3.523,0,0,0,1.75-.414,2.941,2.941,0,0,0,1.154-1.173,3.7,3.7,0,0,0,.415-1.8v-10.1h4.652V66.419h-4.652V63.895A5.331,5.331,0,0,1,274.1,66.78,5.511,5.511,0,0,1,269.678,65.085Zm120.97,1.334V49.827h4.544V66.419Zm-9.737,0v-10.1a4.164,4.164,0,0,0-.649-2.525,2.444,2.444,0,0,0-2.092-.866,3.537,3.537,0,0,0-1.731.416,2.778,2.778,0,0,0-1.154,1.171,3.829,3.829,0,0,0-.4,1.8v10.1H370.2V49.827h4.688v2.525a5.407,5.407,0,0,1,2-2.146,5.8,5.8,0,0,1,3.011-.739,5.49,5.49,0,0,1,4.4,1.677,6.945,6.945,0,0,1,1.443,4.671v10.6Zm-20.194,0V49.827h4.543V66.419Zm-109.522,0V41.171h5.157V61.911h10.062v4.508Zm99.925-.009V38.28h4.69V66.41Zm39.853-21.128a2.555,2.555,0,0,1,0-3.769,2.88,2.88,0,0,1,1.984-.739,2.816,2.816,0,0,1,1.965.739,2.593,2.593,0,0,1,0,3.769,2.772,2.772,0,0,1-1.965.758A2.835,2.835,0,0,1,390.973,45.282Zm-29.931,0a2.555,2.555,0,0,1,0-3.769,2.879,2.879,0,0,1,1.983-.739,2.817,2.817,0,0,1,1.966.739,2.593,2.593,0,0,1,0,3.769,2.773,2.773,0,0,1-1.966.758A2.834,2.834,0,0,1,361.041,45.282Z" fill="#fff"/>
  </g>
</svg>
