<svg xmlns="http://www.w3.org/2000/svg" width="638.85" height="114.241" viewBox="0 0 638.85 114.241">
  <path id="LuceClinic" d="M514.239,5933.3a48.592,48.592,0,0,1-16.822-10.6,48.039,48.039,0,0,1-11.027-16.327,57.868,57.868,0,0,1,0-41.7,48.081,48.081,0,0,1,11.027-16.327,48.656,48.656,0,0,1,16.822-10.6,58.68,58.68,0,0,1,20.992-3.676q10.884,0,18.024,2.687a49.107,49.107,0,0,1,13.218,7.493V5867a43.447,43.447,0,0,0-7.7-6.785,38.6,38.6,0,0,0-9.966-4.948,39.762,39.762,0,0,0-12.581-1.839,32.548,32.548,0,0,0-15.691,3.889,30.619,30.619,0,0,0-11.662,11.1,34.94,34.94,0,0,0,0,34.14,30.427,30.427,0,0,0,11.662,11.167,32.516,32.516,0,0,0,15.691,3.889,39.721,39.721,0,0,0,12.581-1.837,38.558,38.558,0,0,0,9.966-4.948,43.279,43.279,0,0,0,7.7-6.787V5926.8a48.984,48.984,0,0,1-13.218,7.491q-7.141,2.684-18.024,2.687A58.68,58.68,0,0,1,514.239,5933.3Zm275.661-1.131a32.159,32.159,0,0,1-13.006-11.945,35.737,35.737,0,0,1,0-35.554A32.335,32.335,0,0,1,789.9,5872.8a40.132,40.132,0,0,1,18.589-4.242,41.055,41.055,0,0,1,12.653,1.767,24.98,24.98,0,0,1,8.836,4.736v18.8a16.12,16.12,0,0,0-5.02-5.443,26.95,26.95,0,0,0-7.28-3.605,25.75,25.75,0,0,0-7.916-1.272,18.879,18.879,0,0,0-16.4,9.188,18.6,18.6,0,0,0-2.545,9.755,18.867,18.867,0,0,0,2.545,9.9,18.191,18.191,0,0,0,6.857,6.646,19.25,19.25,0,0,0,9.542,2.4,25.306,25.306,0,0,0,8.2-1.343,26.225,26.225,0,0,0,7.139-3.674,16.659,16.659,0,0,0,4.878-5.443v18.8a23.7,23.7,0,0,1-8.836,4.877,41.025,41.025,0,0,1-12.653,1.767A40.144,40.144,0,0,1,789.9,5932.174Zm-369.739,0a30.1,30.1,0,0,1-12.228-11.8,35.49,35.49,0,0,1-4.312-17.883q0-10.46,4.312-18.024a29.672,29.672,0,0,1,12.228-11.733,39.512,39.512,0,0,1,18.661-4.17q10.741,0,18.306,3.887a26.486,26.486,0,0,1,11.522,11.309q3.956,7.422,3.957,17.883,0,1.274-.07,2.687a21.286,21.286,0,0,1-.213,2.263H422.258a24.219,24.219,0,0,0,1.649,6.5,14.646,14.646,0,0,0,5.726,6.927,16.881,16.881,0,0,0,9.189,2.4,21.559,21.559,0,0,0,10.39-2.333,18.81,18.81,0,0,0,7.139-7l15.974,4.947a33.969,33.969,0,0,1-13.5,13.784q-8.412,4.6-20.145,4.594A38.649,38.649,0,0,1,420.161,5932.174Zm32.738-36.9a16.464,16.464,0,0,0-1.709-6.5,13.465,13.465,0,0,0-5.018-5.373,14.4,14.4,0,0,0-7.633-1.979,16.2,16.2,0,0,0-8.977,2.332,14.655,14.655,0,0,0-5.513,6.928,24.389,24.389,0,0,0-1.364,4.594Zm-101.088,36.9a32.14,32.14,0,0,1-13.006-11.945,35.736,35.736,0,0,1,0-35.554,32.316,32.316,0,0,1,13.006-11.874,40.133,40.133,0,0,1,18.589-4.242,41.055,41.055,0,0,1,12.653,1.767,24.973,24.973,0,0,1,8.834,4.736v18.8a16.116,16.116,0,0,0-5.018-5.443,26.972,26.972,0,0,0-7.28-3.605,25.75,25.75,0,0,0-7.916-1.272,18.879,18.879,0,0,0-16.4,9.188,18.6,18.6,0,0,0-2.545,9.755,18.867,18.867,0,0,0,2.545,9.9,18.19,18.19,0,0,0,6.857,6.646,19.246,19.246,0,0,0,9.542,2.4,25.312,25.312,0,0,0,8.2-1.343,26.224,26.224,0,0,0,7.139-3.674,16.655,16.655,0,0,0,4.877-5.443v18.8a23.689,23.689,0,0,1-8.834,4.877,41.026,41.026,0,0,1-12.653,1.767A40.144,40.144,0,0,1,351.811,5932.174Zm-86.233-2.4q-5.724-6.642-5.725-18.236v-41.562H278.8v39.583q0,6.361,2.545,9.825t8.2,3.463a13.8,13.8,0,0,0,6.857-1.625,11.486,11.486,0,0,0,4.524-4.594,14.531,14.531,0,0,0,1.626-7.069v-39.583h18.236V5935H302.546v-9.9a20.891,20.891,0,0,1-19.65,11.309Q271.3,5936.415,265.578,5929.771Zm319.271,5.24V5824.74h18.38v110.271Zm154.936-.01v-65.027H757.6V5935Zm-38.167,0v-39.582q0-6.5-2.545-9.9t-8.2-3.394a13.92,13.92,0,0,0-6.785,1.625,10.924,10.924,0,0,0-4.524,4.6,15.024,15.024,0,0,0-1.554,7.068V5935H659.633v-65.027h18.377v9.9a21.183,21.183,0,0,1,7.845-8.413,22.741,22.741,0,0,1,11.805-2.9q11.588,0,17.247,6.574t5.654,18.308V5935Zm-79.164,0v-65.027h17.813V5935Zm-429.326,0v-98.955h20.215v81.285h39.441V5935Zm547.93-82.84a10.015,10.015,0,0,1,0-14.771,11.287,11.287,0,0,1,7.775-2.9,11.037,11.037,0,0,1,7.7,2.9,10.164,10.164,0,0,1,0,14.771,10.881,10.881,0,0,1-7.7,2.97A11.126,11.126,0,0,1,741.058,5852.16Zm-117.332,0a10.015,10.015,0,0,1,0-14.771,11.287,11.287,0,0,1,7.775-2.9,11.037,11.037,0,0,1,7.7,2.9,10.164,10.164,0,0,1,0,14.771,10.881,10.881,0,0,1-7.7,2.97A11.126,11.126,0,0,1,623.726,5852.16Z" transform="translate(-192.128 -5823.74)" fill="#edd8c4" stroke="#edd8c4" stroke-width="2"/>
</svg>
