<svg xmlns="http://www.w3.org/2000/svg" width="946.104" height="797.147" viewBox="0 0 946.104 797.147">
  <path id="ILUSTRACJA_linear_kopia_2" data-name="ILUSTRACJA linear kopia 2" d="M96,6025c14.563-30.207,41.937-58.792,44-52s31.436,19.208,38,22-2.563,18.707-19,26-42.064-6.793-49-30,13.437-35.793,39-38,39.937-30.793,15-53,15.436-27.793,32-51,33.936-40.293-7-42-67.564,65.207-60,92,45.436,35.208,66,37,16.937,23.707,1,27-6.063,23.207-9,26-4.563,8.207,0,7,50.936-1.793,68-22,21.936-33.293,3-40-34.064,11.208-36,18-5.564,10.208-5,13c3.564,8.292,35.936-3.793,47-4s26.936-16.293,34-27,8.436-18.292,1-15-33.064,9.708-57,2-45.064-2.793-67,9-42.064,24.208-98,12c-68.937-17.708-10.439-97.627,25-112,32.564-13.208,88.437-47.793,101-55s-48.4-52.626-27-46c18.063,19.292,59.936,40.708,67,57s1.1,25.874-3,31c-3.63,4.535-28.563,33.707-32,42s10.437,16.208,24,13,34.436-3.792,54,1,30.437,24.207,25,31-22.064,11.207-37,3-5.064-25.792,20-26,23.937,16.207,24,20,.936,22.207,17,20,4.437-31.292,14-19,75.436,62.707,115,82,72.937-3.793,97-23,26.437-30.793,14-64,28.437-29.792,80-76c68.063-56.207,194.436,3.207,225,46s-29.564,67.208-24,87,14.937,21.208,48,29,45.186,55.208,26,57c-15.619,1.459-30.063,27.708-20,25s29.436-2.043,22,24c-8,28.013,30.269,17.1,20,23-12.687,7.293-17.063,9.708-44-12s-32.828,5.116-9,44c18.564,30.293-24.063,29.207-29,54s20.437,46.708,11,63-36.064,17.708-69-12-82.064-.293-82,37,68.936,50.708,112,42,20.936-22.792,43-50c25.564-32.708,16.937-34.793,12-47s-15.063-11.793-26-15-10.063-5.793-65,1c-95.937,13.293-168.813-93.711-195-122s-71.813-39.712-75-15,14.687,21.288,21,32,13.187,20.789,21,14-3.813-24.711-14-27,4.187-19.212-11-47-69.313-60.212-79-3,34.033,177.816,42,200,9.533,56.817-4,47,1.533-35.183,12-31,6.034,23.816,5,50-24.467,83.816-58,112-76.466,62.317-85,73,66.033,23.442,114,8,72.783-17.809,107,1,67.23,11.548,83,11,18.73-7.952,33-12,21.979-24.452,28-39,21.48-25.452,32-38,53.729-59.2,67-65,31.229-19.453,34-26-4.52-6.452-14-8-20.52,8.048-38,10-62.52,35.049-79,49-23.271,30.048-55,19-27.52-44.952-8-71,30.23-45.7,30-70c-3.229-34.548-16.77-21.952-25-15s-20.52,22.8-5,30,27.48-19.452,25-40-20.521-4.7-33,12-12.271,25.3-30,20c-44.479-7.548-56.02-89.952-58-106s-7.771-4.452-26-2-39.27-21.7-52-48c-18.229-40.549-13.27-83.453,3-96s30.229-.2,50,15,30.23,10.8,59-26,138.98-52.452,151-36,52.73,41.548,71,44,18.729,13.548,4,16-56.52-41.2-70-38c-45.23,8.952-58.126,16.507-46,47s51.374,40.007,70,40,40.124-12.743,17-10-67.126-15.743-74-21,26.874-25.492,52-19,29.479,20.583,45,57c21.626,50.743-19.134,47.714-16,66,4.626,26.993,22.124,9.507,37,16s38.374,15.382,49-10-23.126-25.619-20-97c-.624-28.382,44.374-101.617,12-152-52.374-69.382-195.626,14.382-238,50s-67.626-28.618-124-49-3.626-17.618-4-52,1.374-38.618,39-69c95.626-45.382,153.374-14.618,220,3s86.374,43.382,115,83,25.374,118.382,30,143,7.374,30.382-7,57-11.626,33.382-6,63-10.626,72.382-24,88-30.626,12.382-98-5-133.626-116.617-55-117,39.374,90.382-10,50-159.626-163.618-168-175,15.374-41.618,31-16,43.707,63.382,61,78c13.628,11.52,18.337,17.039-6,39-20.174,18.2-34.626-23.618-70-43s-35.758-33.608-34-50c2.293-21.382-182.626-212.618-217-251s-103.626-7.617-58,40,95.374,64.382,28-8-73.626-46.618-86-34-13.626,39.383,13,68,126.374,126.382,153,149,96.374,61.382,115,51,58.374-23.618,76-56,17.374-37.618,7-57-149-169-149-169c-50,7-8.9,60.209,36,114s21.1,102.21,11,127c-21.1,60.791-7.9,46.21-3,128s53.1,85.209,50,134c-11.1,79.791-35.9,69.209-43,77s-46.9,110.209-38,151,50.1,29.21,76,3,42.1-52.791,51-10c15.9,53.791,60.1,57.209,131,32s100.066,6.256,168,28c25.9,8.291,67.23,6.775,85,1,16.593-5.393,35.73-16.975,8-66s-87.7-62.053-126-63c-41.48-1.025-78.271,4.525-106,29s-60.77,43.525-87,22,39.23-116.475,18-124-19.27,7.525-3,10,20.73-12.474,1-22-37.27,44.525-59,58-66.27,46.025-76,67-17.77,26.025-94,59-299.834,57.57-367-196C32.7,6118.74,81.437,6055.206,96,6025Z" transform="translate(-44.421 -5725.116)" fill="none" stroke="#edd8c4" stroke-linecap="round" stroke-linejoin="round" stroke-width="1"/>
</svg>
